# xmcd CD database file
#
# Track frame offsets:
#	150
#	9682
#	24275
#	40677
#	54139
#	64989
#	77673
#	90917
#	105169
#	120085
#	134236
#	147672
#	161087
#	175780
#	190255
#	201828
#
# Disc length: 2871 seconds
#
# Revision: 0
# Processed by: cddbd v1.5.1PL0 Copyright (c) Steve Scherf et al.
# Submitted via: CDex 1.50beta10
#
DISCID=ca0b3510
DTITLE=Charlie Parker - Stella By Starlight
DYEAR=2003
DGENRE=Jazz
TTITLE0=52nd Street Theme
TTITLE1=Ornithology
TTITLE2=Mohawk
TTITLE3=Stella By Starlight
TTITLE4=Constellation
TTITLE5=Summertime
TTITLE6=Scrapple From The Apple (with Miles Davis)
TTITLE7=My Old Fame
TTITLE8=A Night In Tunisia
TTITLE9=Bongo Beep
TTITLE10=Bongo Bop
TTITLE11=Passport No.1
TTITLE12=Swedish Schnapps
TTITLE13=Slim's Jam
TTITLE14=Warming Up A Riff
TTITLE15=Repetition
EXTD=YEAR: 2003
EXTT0=
EXTT1=
EXTT2=
EXTT3=
EXTT4=
EXTT5=
EXTT6=
EXTT7=
EXTT8=
EXTT9=
EXTT10=
EXTT11=
EXTT12=
EXTT13=
EXTT14=
EXTT15=
PLAYORDER=
